<svg width="127" height="30" viewBox="0 0 127 30" fill="none" xmlns="http://www.w3.org/2000/svg">
<path d="M10.016 23.384C8.224 23.384 6.50667 23.1493 4.864 22.68C3.22133 22.1893 1.89867 21.56 0.896 20.792L2.656 16.888C3.616 17.5707 4.74667 18.136 6.048 18.584C7.37067 19.0107 8.704 19.224 10.048 19.224C11.072 19.224 11.8933 19.128 12.512 18.936C13.152 18.7227 13.6213 18.4347 13.92 18.072C14.2187 17.7093 14.368 17.2933 14.368 16.824C14.368 16.2267 14.1333 15.7573 13.664 15.416C13.1947 15.0533 12.576 14.7653 11.808 14.552C11.04 14.3173 10.1867 14.104 9.248 13.912C8.33067 13.6987 7.40267 13.4427 6.464 13.144C5.54667 12.8453 4.704 12.4613 3.936 11.992C3.168 11.5227 2.53867 10.904 2.048 10.136C1.57867 9.368 1.344 8.38667 1.344 7.192C1.344 5.912 1.68533 4.74933 2.368 3.704C3.072 2.63733 4.11733 1.79467 5.504 1.176C6.912 0.535999 8.672 0.216 10.784 0.216C12.192 0.216 13.5787 0.386666 14.944 0.727999C16.3093 1.048 17.5147 1.53867 18.56 2.2L16.96 6.136C15.9147 5.53867 14.8693 5.10133 13.824 4.824C12.7787 4.52533 11.7547 4.376 10.752 4.376C9.74933 4.376 8.928 4.49333 8.288 4.728C7.648 4.96267 7.18933 5.272 6.912 5.656C6.63467 6.01867 6.496 6.44533 6.496 6.936C6.496 7.512 6.73067 7.98133 7.2 8.344C7.66933 8.68533 8.288 8.96267 9.056 9.176C9.824 9.38933 10.6667 9.60267 11.584 9.816C12.5227 10.0293 13.4507 10.2747 14.368 10.552C15.3067 10.8293 16.16 11.2027 16.928 11.672C17.696 12.1413 18.3147 12.76 18.784 13.528C19.2747 14.296 19.52 15.2667 19.52 16.44C19.52 17.6987 19.168 18.8507 18.464 19.896C17.76 20.9413 16.704 21.784 15.296 22.424C13.9093 23.064 12.1493 23.384 10.016 23.384ZM29.7503 23.256C27.7236 23.256 26.1449 22.744 25.0143 21.72C23.8836 20.6747 23.3183 19.128 23.3183 17.08V1.976H28.3103V17.016C28.3103 17.7413 28.5023 18.3067 28.8863 18.712C29.2703 19.096 29.7929 19.288 30.4543 19.288C31.2436 19.288 31.9156 19.0747 32.4703 18.648L33.8143 22.168C33.3023 22.5307 32.6836 22.808 31.9583 23C31.2543 23.1707 30.5183 23.256 29.7503 23.256ZM20.6623 10.008V6.168H32.5983V10.008H20.6623ZM47.1765 23V19.64L46.8565 18.904V12.888C46.8565 11.8213 46.5258 10.9893 45.8645 10.392C45.2245 9.79467 44.2325 9.496 42.8885 9.496C41.9712 9.496 41.0645 9.64533 40.1685 9.944C39.2938 10.2213 38.5472 10.6053 37.9285 11.096L36.1365 7.608C37.0752 6.94667 38.2058 6.43467 39.5285 6.072C40.8512 5.70933 42.1952 5.528 43.5605 5.528C46.1845 5.528 48.2218 6.14667 49.6725 7.384C51.1232 8.62133 51.8485 10.552 51.8485 13.176V23H47.1765ZM41.9285 23.256C40.5845 23.256 39.4325 23.032 38.4725 22.584C37.5125 22.1147 36.7765 21.4853 36.2645 20.696C35.7525 19.9067 35.4965 19.0213 35.4965 18.04C35.4965 17.016 35.7418 16.12 36.2325 15.352C36.7445 14.584 37.5445 13.9867 38.6325 13.56C39.7205 13.112 41.1392 12.888 42.8885 12.888H47.4645V15.8H43.4325C42.2592 15.8 41.4485 15.992 41.0005 16.376C40.5738 16.76 40.3605 17.24 40.3605 17.816C40.3605 18.456 40.6058 18.968 41.0965 19.352C41.6085 19.7147 42.3018 19.896 43.1765 19.896C44.0085 19.896 44.7552 19.704 45.4165 19.32C46.0778 18.9147 46.5578 18.328 46.8565 17.56L47.6245 19.864C47.2618 20.9733 46.6005 21.816 45.6405 22.392C44.6805 22.968 43.4432 23.256 41.9285 23.256ZM56.3665 23V5.784H61.1345V10.648L60.4625 9.24C60.9745 8.024 61.7958 7.10667 62.9265 6.488C64.0572 5.848 65.4332 5.528 67.0545 5.528V10.136C66.8412 10.1147 66.6492 10.104 66.4785 10.104C66.3078 10.0827 66.1265 10.072 65.9345 10.072C64.5692 10.072 63.4598 10.4667 62.6065 11.256C61.7745 12.024 61.3585 13.2293 61.3585 14.872V23H56.3665ZM77.6565 23.256C75.6298 23.256 74.0512 22.744 72.9205 21.72C71.7898 20.6747 71.2245 19.128 71.2245 17.08V1.976H76.2165V17.016C76.2165 17.7413 76.4085 18.3067 76.7925 18.712C77.1765 19.096 77.6992 19.288 78.3605 19.288C79.1498 19.288 79.8218 19.0747 80.3765 18.648L81.7205 22.168C81.2085 22.5307 80.5898 22.808 79.8645 23C79.1605 23.1707 78.4245 23.256 77.6565 23.256ZM68.5685 10.008V6.168H80.5045V10.008H68.5685ZM91.7868 23.256C90.3574 23.256 89.0774 22.9787 87.9468 22.424C86.8374 21.8693 85.9734 21.0267 85.3548 19.896C84.7361 18.744 84.4268 17.2827 84.4268 15.512V5.784H89.4188V14.776C89.4188 16.2053 89.7174 17.2613 90.3148 17.944C90.9334 18.6053 91.7974 18.936 92.9068 18.936C93.6748 18.936 94.3574 18.776 94.9548 18.456C95.5521 18.1147 96.0214 17.6027 96.3628 16.92C96.7041 16.216 96.8748 15.3413 96.8748 14.296V5.784H101.867V23H97.1308V18.264L97.9948 19.64C97.4188 20.8347 96.5654 21.7413 95.4348 22.36C94.3254 22.9573 93.1094 23.256 91.7868 23.256ZM116.668 23.256C115.217 23.256 113.948 22.936 112.86 22.296C111.772 21.656 110.918 20.6853 110.3 19.384C109.702 18.0613 109.404 16.3973 109.404 14.392C109.404 12.3653 109.692 10.7013 110.268 9.4C110.844 8.09867 111.676 7.128 112.764 6.488C113.852 5.848 115.153 5.528 116.668 5.528C118.289 5.528 119.74 5.90133 121.02 6.648C122.321 7.37333 123.345 8.39733 124.092 9.72C124.86 11.0427 125.244 12.6 125.244 14.392C125.244 16.2053 124.86 17.7733 124.092 19.096C123.345 20.4187 122.321 21.4427 121.02 22.168C119.74 22.8933 118.289 23.256 116.668 23.256ZM106.492 29.208V5.784H111.26V9.304L111.164 14.424L111.484 19.512V29.208H106.492ZM115.804 19.16C116.636 19.16 117.372 18.968 118.012 18.584C118.673 18.2 119.196 17.656 119.58 16.952C119.985 16.2267 120.188 15.3733 120.188 14.392C120.188 13.3893 119.985 12.536 119.58 11.832C119.196 11.128 118.673 10.584 118.012 10.2C117.372 9.816 116.636 9.624 115.804 9.624C114.972 9.624 114.225 9.816 113.564 10.2C112.902 10.584 112.38 11.128 111.996 11.832C111.612 12.536 111.42 13.3893 111.42 14.392C111.42 15.3733 111.612 16.2267 111.996 16.952C112.38 17.656 112.902 18.2 113.564 18.584C114.225 18.968 114.972 19.16 115.804 19.16Z" fill="black"/>
<path d="M82.2188 27H126.268V28.6H82.2188V27Z" fill="black"/>
</svg>
